<svg width="54" height="54" viewBox="0 0 54 54" fill="none" xmlns="http://www.w3.org/2000/svg">
<path d="M20.9131 24.7131C27.2794 24.7131 32.4405 19.5524 32.4405 13.1857C32.4405 6.81937 27.2794 1.65833 20.9131 1.65833C14.5468 1.65833 9.38574 6.81937 9.38574 13.1857C9.39188 19.55 14.5492 24.7069 20.9131 24.7131ZM20.9131 3.83942C26.0752 3.83942 30.2594 8.0243 30.2594 13.1857C30.2594 18.3478 26.0752 22.532 20.9131 22.532C15.7514 22.532 11.5672 18.3478 11.5672 13.1857C11.573 8.02635 15.7538 3.84555 20.9131 3.83942Z" fill="url(#paint0_linear)"/>
<path d="M50.8711 31.1585L41.4703 26.153C41.1464 25.9764 40.7543 25.9805 40.4341 26.1635L31.8294 30.8749C28.6776 28.5301 24.9039 27.3088 20.8912 27.3088C15.8962 27.3197 11.2613 29.2611 7.8258 32.7945C4.34669 36.3605 2.43802 41.2355 2.44927 46.5247C2.45097 47.1265 2.9382 47.6138 3.53964 47.6155L33.8796 47.5609C35.3058 49.3318 37.1394 50.7311 39.2234 51.6398L40.4887 52.1959C40.6261 52.2572 40.7751 52.2869 40.9251 52.2831C41.0744 52.2804 41.2224 52.2511 41.3612 52.1959L42.7898 51.5743C48.0388 49.3721 51.4528 44.2342 51.449 38.5416V32.1289C51.4493 31.7239 51.2274 31.3512 50.8711 31.1585ZM4.66309 45.4235C4.89187 41.1373 6.56051 37.2224 9.39624 34.3103C12.4168 31.2022 16.5065 29.4899 20.9018 29.4899H20.9345C24.5445 29.4899 27.9255 30.6243 30.7281 32.7726V38.6725C30.7298 41.0149 31.3142 43.3198 32.4291 45.3795L4.66309 45.4235ZM49.2679 38.5416C49.27 43.3614 46.3752 47.7099 41.9282 49.5678H41.9173L40.9251 49.9929L40.0959 49.6329C35.7344 47.7273 32.914 43.4217 32.9092 38.662V32.7617L40.9684 28.345L49.2679 32.7726V38.5416Z" fill="url(#paint1_linear)"/>
<path d="M37.9807 37.9636C37.5893 37.5061 36.9009 37.4526 36.443 37.844C35.9855 38.2354 35.9319 38.9238 36.3234 39.3813L38.7987 42.2713C39.0067 42.513 39.3091 42.6521 39.6276 42.6532C39.8775 42.6552 40.1202 42.5707 40.3146 42.4131L46.073 37.7349C46.5398 37.3523 46.608 36.6639 46.2254 36.1968C45.8432 35.73 45.1548 35.6618 44.688 36.0444L39.7585 40.0578L37.9807 37.9636Z" fill="url(#paint2_linear)"/>
<defs>
<linearGradient id="paint0_linear" x1="20.9131" y1="1.65833" x2="28.3548" y2="22.4143" gradientUnits="userSpaceOnUse">
<stop stop-color="#FCFFD4"/>
<stop offset="1" stop-color="#80805D"/>
</linearGradient>
<linearGradient id="paint1_linear" x1="26.9491" y1="26.0233" x2="31.8932" y2="51.7541" gradientUnits="userSpaceOnUse">
<stop stop-color="#FCFFD4"/>
<stop offset="1" stop-color="#80805D"/>
</linearGradient>
<linearGradient id="paint2_linear" x1="41.2673" y1="35.7968" x2="42.8253" y2="42.3952" gradientUnits="userSpaceOnUse">
<stop stop-color="#FCFFD4"/>
<stop offset="1" stop-color="#80805D"/>
</linearGradient>
</defs>
</svg>
