<svg width="54" height="54" viewBox="0 0 54 54" fill="none" xmlns="http://www.w3.org/2000/svg">
<path d="M53.9082 27.4477L53.8623 27.4706L46.1152 8.189H49.6502C50.284 8.189 50.7979 7.67511 50.7979 7.04128C50.7979 6.40746 50.284 5.89357 49.6502 5.89357H28.0502V2.57667C28.0502 1.94284 27.5363 1.42896 26.9024 1.42896C26.2686 1.42896 25.7547 1.94284 25.7547 2.57667V5.88209H4.16621C3.53238 5.88209 3.01849 6.39598 3.01849 7.02981C3.01849 7.66363 3.53238 8.17752 4.16621 8.17752H7.85037L0.0918172 27.4477C0.0344315 27.5821 0.00329968 27.7263 0 27.8723C0 33.1429 4.27266 37.4156 9.54325 37.4156C14.8138 37.4156 19.0865 33.1429 19.0865 27.8723C19.0832 27.7263 19.0521 27.5821 18.9947 27.4477L11.2476 8.16604H25.7547V43.6534C20.2801 44.0666 15.9991 47.395 15.9991 51.4234C15.9991 52.0573 16.513 52.5711 17.1469 52.5711H36.658C37.2919 52.5711 37.8057 52.0573 37.8057 51.4234C37.8057 47.395 33.5248 44.0666 28.0502 43.6534V8.16604H42.7065L35.0053 27.4477C34.9479 27.5821 34.9168 27.7263 34.9135 27.8723C34.9135 33.1429 39.1862 37.4156 44.4567 37.4156C49.7273 37.4156 54 33.1429 54 27.8723C53.9967 27.7263 53.9656 27.5821 53.9082 27.4477ZM9.53751 35.1373C5.98275 35.1325 2.95537 32.5521 2.38725 29.043H16.6419C16.0766 32.535 13.0749 35.1101 9.53751 35.1373ZM16.2287 26.7476H2.86929L9.56047 10.0942L16.2287 26.7476ZM35.3037 50.2757H18.4897C19.339 47.8081 22.8395 45.9029 26.891 45.9029C30.9424 45.9029 34.4544 47.8081 35.3037 50.2757ZM44.4051 10.1057L51.0733 26.7476H37.7139L44.4051 10.1057ZM44.4051 35.1373V35.1488C40.864 35.1206 37.861 32.5396 37.3007 29.043H51.5554C50.9872 32.5521 47.9599 35.1325 44.4051 35.1373Z" fill="url(#paint0_linear)"/>
<defs>
<linearGradient id="paint0_linear" x1="27" y1="1.42896" x2="42.82" y2="48.0186" gradientUnits="userSpaceOnUse">
<stop stop-color="#FCFFD4"/>
<stop offset="1" stop-color="#80805D"/>
</linearGradient>
</defs>
</svg>
