<svg width="85" height="81" viewBox="0 0 85 81" fill="none" xmlns="http://www.w3.org/2000/svg">
<g opacity="0.9" clip-path="url(#clip0)" filter="url(#filter0_d)">
<path d="M21.6179 15.0627C12.1402 14.5627 15.6262 22.5337 15.6262 22.5337C15.6262 22.5337 23.8573 48.3807 24.7171 58.1661C25.577 67.95 34.5371 65.7477 34.5371 65.7477C34.5371 65.7477 67.0593 61.1203 67.9116 60.9449C68.7656 60.7703 68.6393 60.5859 68.6921 60.0569C68.7449 59.5277 67.9886 59.6246 67.9886 59.6246C67.9886 59.6246 67.7872 59.6541 67.4488 59.7015C65.9923 57.6694 66.3244 54.861 67.5651 52.8003L70 52.2571L50.0601 16.1771C50.0601 16.1771 31.0945 15.5622 21.6179 15.0627ZM66.1103 59.893C59.3524 60.8626 36.5114 64.1417 35.4891 64.294C34.2904 64.4731 27.9209 64.9779 27.5955 60.5171C27.2702 56.0563 35.1408 55.6294 35.1408 55.6294L66.0743 52.9303C65.0316 55.1367 64.9161 57.7579 66.1103 59.893Z" fill="#F2F2F2"/>
</g>
<defs>
<filter id="filter0_d" x="0" y="-2" width="85" height="85" filterUnits="userSpaceOnUse" color-interpolation-filters="sRGB">
<feFlood flood-opacity="0" result="BackgroundImageFix"/>
<feColorMatrix in="SourceAlpha" type="matrix" values="0 0 0 0 0 0 0 0 0 0 0 0 0 0 0 0 0 0 127 0"/>
<feOffset/>
<feGaussianBlur stdDeviation="7.5"/>
<feColorMatrix type="matrix" values="0 0 0 0 0.866667 0 0 0 0 0.866667 0 0 0 0 0.862745 0 0 0 0.3 0"/>
<feBlend mode="normal" in2="BackgroundImageFix" result="effect1_dropShadow"/>
<feBlend mode="normal" in="SourceGraphic" in2="effect1_dropShadow" result="shape"/>
</filter>
<clipPath id="clip0">
<rect width="55" height="55" fill="white" transform="translate(15 13)"/>
</clipPath>
</defs>
</svg>
