<svg width="65" height="65" viewBox="0 0 65 65" fill="none" xmlns="http://www.w3.org/2000/svg">
<g opacity="0.15" clip-path="url(#clip0)">
<path d="M60.3629 22.4585C60.1001 20.4826 60.063 17.0793 61.8983 15.9366C61.9311 15.9156 61.9555 15.8854 61.9843 15.8594C63.4847 15.3795 64.5231 14.7059 63.708 13.7997L41.5741 7.13048L5.73426 12.1133C5.73426 12.1133 1.63016 12.7 1.99678 19.0762C2.19581 22.5466 3.28425 24.2509 4.23613 25.0897L1.29515 25.976C0.478863 26.8823 1.51706 27.556 3.01772 28.0352C3.04624 28.0619 3.07029 28.092 3.10365 28.113C4.93777 29.2567 4.90246 32.6596 4.63865 34.6359C-1.95039 36.5069 0.414849 37.1165 0.414849 37.1165L1.86022 37.4663C0.843552 38.385 -0.166132 40.1272 0.0230017 43.4313C0.389825 49.8064 3.76087 50.2464 3.76087 50.2464L27.2143 57.8695L62.6143 49.2951C62.6143 49.2951 64.9803 48.6844 58.3895 46.8132C58.1246 44.84 58.0877 41.4375 59.9261 40.2909C59.9598 40.2705 59.9845 40.2397 60.0118 40.2141C61.5125 39.7342 62.5499 39.0612 61.7346 38.1549L60.1959 37.6903C61.2221 37.0715 62.7635 35.4543 63.005 31.2534C63.1716 28.3638 62.4178 26.6715 61.5453 25.6752L64.5865 24.9392C64.5867 24.9404 66.9528 24.3297 60.3629 22.4585ZM30.7529 22.3769L36.7059 21.1534L56.8235 17.0192L59.8208 16.4027C58.8631 18.1556 58.9032 20.5544 59.0617 22.0962C59.0964 22.4449 59.1364 22.7635 59.1752 23.0056L55.8945 23.8213L30.5027 30.138L30.7529 22.3769ZM5.18141 28.5811L8.17826 29.1975L27.4984 33.1692L29.1863 33.5148L34.2479 34.5552L34.4976 42.3165L8.40018 35.8236L5.82738 35.1843C5.8652 34.9418 5.90516 34.6237 5.94144 34.2739C6.09895 32.7333 6.13988 30.3339 5.18141 28.5811ZM4.01712 18.7693C3.98085 17.0733 4.28307 15.8468 4.89393 15.2233C5.28267 14.8252 5.74144 14.7424 6.05608 14.7424C6.22233 14.7424 6.34202 14.7655 6.35016 14.7655L21.7926 19.8L29.4971 22.3119L29.2443 30.1273L7.63026 24.0676L6.48964 23.7481C6.44774 23.7363 6.3909 23.7281 6.34706 23.7262C6.25802 23.7198 4.1211 23.5231 4.01712 18.7693ZM27.2701 54.4836L4.51605 48.1042C4.47395 48.092 4.4177 48.0838 4.37386 48.0817C4.28327 48.0757 2.14538 47.8792 2.04198 43.1266C2.00513 41.4284 2.3089 40.203 2.91859 39.579C3.30831 39.1809 3.76727 39.0981 4.08133 39.0981C4.24796 39.0981 4.36726 39.1204 4.37599 39.1204C4.37599 39.1204 4.37696 39.1204 4.37599 39.1204L27.5213 46.6679L27.2701 54.4836ZM57.0864 46.4513C57.1222 46.8012 57.1622 47.1191 57.201 47.3616L28.5279 54.4946L28.7785 46.7333L34.9086 45.473L35.8139 45.692L39.2071 44.5892L54.8482 41.3751L57.8466 40.7582C56.8879 42.5109 56.9277 44.9106 57.0864 46.4513ZM58.6658 35.9034C58.6136 35.9045 58.5614 35.9115 58.5123 35.927L56.3498 36.5325L35.7588 42.3062L35.5071 34.4908L42.2627 32.2873L58.6208 26.9526C58.6229 26.9516 59.4813 26.7609 60.1113 27.4016C60.7212 28.0251 61.0238 29.2517 60.9882 30.9477C60.8815 35.6999 58.7436 35.8974 58.6658 35.9034Z" fill="#F2F2F2"/>
</g>
<defs>
<clipPath id="clip0">
<rect width="65" height="65" fill="white"/>
</clipPath>
</defs>
</svg>
