<svg width="48" height="48" viewBox="0 0 48 48" fill="none" xmlns="http://www.w3.org/2000/svg">
<path d="M45.6011 9.62954H31.7764C31.7764 9.62954 31.7764 9.54996 31.7764 9.50448V5.10467C31.7764 3.77976 30.7025 2.70581 29.3775 2.70581H18.6111C17.2862 2.70581 16.2122 3.77976 16.2122 5.10467V9.51585C16.2122 9.51585 16.2122 9.59544 16.2122 9.64091H2.39886C1.07395 9.64091 0 10.7149 0 12.0398V42.8953C0 44.2202 1.07395 45.2942 2.39886 45.2942H45.6011C46.9261 45.2942 48 44.2202 48 42.8953V12.0284C48 10.7035 46.9261 9.62954 45.6011 9.62954ZM18.486 9.49311L18.5088 5.08194C18.5088 5.01287 18.5648 4.95688 18.6338 4.95688H29.423C29.4921 4.95688 29.5481 5.01287 29.5481 5.08194V9.49311C29.5481 9.56218 29.4921 9.61817 29.423 9.61817H18.6111C18.542 9.61817 18.486 9.56218 18.486 9.49311ZM2.39886 11.9033H45.6011C44.5324 13.927 38.973 23.4997 28.6272 25.7963V24.4775C28.6275 23.1702 27.5808 22.1033 26.2738 22.0786H21.7262C20.4013 22.0786 19.3273 23.1526 19.3273 24.4775V25.819C8.99289 23.5452 3.41071 13.9384 2.35339 11.9261L2.39886 11.9033ZM26.3648 24.4775V31.0943C26.3648 31.1633 26.3088 31.2193 26.2397 31.2193H21.7262C21.6571 31.2193 21.6011 31.1633 21.6011 31.0943V24.4775C21.6011 24.4084 21.6571 24.3524 21.7262 24.3524H26.2738C26.3294 24.3681 26.3669 24.4198 26.3648 24.4775ZM45.6921 42.9067C45.6921 42.9757 45.6361 43.0317 45.567 43.0317H2.39886C2.3298 43.0317 2.2738 42.9757 2.2738 42.9067V16.1554C5.07058 20.2141 10.6414 26.3875 19.3273 28.1383V31.0829C19.3273 32.4078 20.4013 33.4817 21.7262 33.4817H26.2738C27.5987 33.4817 28.6727 32.4078 28.6727 31.0829V28.1383C37.3586 26.4102 42.9294 20.18 45.7262 16.1554L45.6921 42.9067Z" fill="url(#paint0_linear)"/>
<defs>
<linearGradient id="paint0_linear" x1="24" y1="2.70581" x2="36.5" y2="42" gradientUnits="userSpaceOnUse">
<stop stop-color="#FCFFD4"/>
<stop offset="1" stop-color="#80805D"/>
</linearGradient>
</defs>
</svg>
