<svg width="23" height="23" viewBox="0 0 23 23" fill="none" xmlns="http://www.w3.org/2000/svg">
<g opacity="0.6">
<path d="M11.3939 7.21458C10.2294 7.21458 9.1125 7.67721 8.28903 8.50068C7.46555 9.32416 7.00293 10.441 7.00293 11.6056C7.00293 12.7702 7.46555 13.887 8.28903 14.7105C9.1125 15.534 10.2294 15.9966 11.3939 15.9966C12.5585 15.9966 13.6754 15.534 14.4988 14.7105C15.3223 13.887 15.7849 12.7702 15.7849 11.6056C15.7849 10.441 15.3223 9.32416 14.4988 8.50068C13.6754 7.67721 12.5585 7.21458 11.3939 7.21458ZM11.3939 14.4573C10.6374 14.4573 9.91179 14.1567 9.37682 13.6218C8.84185 13.0868 8.5413 12.3612 8.5413 11.6046C8.5413 10.8481 8.84185 10.1225 9.37682 9.58753C9.91179 9.05255 10.6374 8.75201 11.3939 8.75201C12.1505 8.75201 12.8761 9.05255 13.4111 9.58753C13.946 10.1225 14.2466 10.8481 14.2466 11.6046C14.2466 12.3612 13.946 13.0868 13.4111 13.6218C12.8761 14.1567 12.1505 14.4573 11.3939 14.4573Z" fill="white"/>
<path d="M15.9592 8.07684C16.5246 8.07684 16.9829 7.61853 16.9829 7.05316C16.9829 6.4878 16.5246 6.02948 15.9592 6.02948C15.3939 6.02948 14.9355 6.4878 14.9355 7.05316C14.9355 7.61853 15.3939 8.07684 15.9592 8.07684Z" fill="white"/>
<path d="M19.4982 6.01238C19.2784 5.44468 18.9425 4.92914 18.5119 4.49875C18.0814 4.06836 17.5657 3.73262 16.9979 3.513C16.3335 3.26359 15.6316 3.12873 14.9221 3.11416C14.0076 3.07428 13.718 3.06288 11.399 3.06288C9.08004 3.06288 8.78281 3.06288 7.87593 3.11416C7.16694 3.12798 6.46553 3.26287 5.80198 3.513C5.23405 3.73236 4.71825 4.06802 4.28767 4.49844C3.85708 4.92886 3.52123 5.44453 3.30165 6.01238C3.05219 6.67674 2.91764 7.37871 2.90376 8.08823C2.86293 9.00176 2.85059 9.29139 2.85059 11.6113C2.85059 13.9302 2.85059 14.2256 2.90376 15.1344C2.91801 15.8447 3.0519 16.5455 3.30165 17.2112C3.52185 17.7788 3.85803 18.2943 4.28871 18.7246C4.7194 19.155 5.23512 19.4908 5.80293 19.7105C6.46522 19.97 7.16693 20.1145 7.87783 20.1379C8.79231 20.1777 9.08194 20.1901 11.4009 20.1901C13.7198 20.1901 14.0171 20.1901 14.924 20.1379C15.6334 20.1234 16.3353 19.9889 16.9998 19.74C17.5674 19.5198 18.083 19.1838 18.5135 18.7533C18.944 18.3228 19.28 17.8073 19.5001 17.2396C19.7499 16.5749 19.8838 15.8741 19.898 15.1638C19.9389 14.2503 19.9512 13.9606 19.9512 11.6407C19.9512 9.32083 19.9512 9.02645 19.898 8.11767C19.887 7.39812 19.7517 6.68589 19.4982 6.01238ZM18.3416 15.0641C18.3355 15.6113 18.2356 16.1535 18.0463 16.667C17.9037 17.0363 17.6854 17.3716 17.4054 17.6515C17.1254 17.9313 16.7899 18.1494 16.4205 18.2918C15.9127 18.4803 15.3763 18.5802 14.8347 18.5871C13.9326 18.6289 13.6781 18.6394 11.3648 18.6394C9.04966 18.6394 8.8132 18.6394 7.89398 18.5871C7.35263 18.5805 6.81648 18.4806 6.30907 18.2918C5.93843 18.1503 5.60161 17.9326 5.32042 17.6527C5.03923 17.3728 4.81993 17.037 4.67669 16.667C4.49004 16.159 4.3902 15.6233 4.38136 15.0821C4.34053 14.18 4.33103 13.9255 4.33103 11.6122C4.33103 9.29804 4.33103 9.06158 4.38136 8.14141C4.3875 7.59445 4.48739 7.0526 4.67669 6.53941C4.96632 5.79017 5.55983 5.20046 6.30907 4.91368C6.81673 4.72579 7.35272 4.62591 7.89398 4.61835C8.79706 4.57751 9.05061 4.56612 11.3648 4.56612C13.679 4.56612 13.9164 4.56612 14.8347 4.61835C15.3764 4.62486 15.9128 4.72477 16.4205 4.91368C16.7899 5.05638 17.1253 5.27472 17.4053 5.55469C17.6852 5.83467 17.9036 6.17008 18.0463 6.53941C18.2329 7.04741 18.3328 7.58319 18.3416 8.12432C18.3824 9.0274 18.3929 9.28094 18.3929 11.5951C18.3929 13.9084 18.3929 14.1572 18.3521 15.065H18.3416V15.0641Z" fill="white"/>
</g>
</svg>
