<svg width="54" height="54" viewBox="0 0 54 54" fill="none" xmlns="http://www.w3.org/2000/svg">
<path d="M43.526 0H10.4736C9.23093 0 8.22363 1.00729 8.22363 2.24999V45.7424C8.22363 46.9851 9.23093 47.9924 10.4736 47.9924H13.9724V52.8749C13.9724 53.4961 14.4759 53.9999 15.0972 54C15.4261 54 15.7386 53.8561 15.9524 53.6061L18.4274 50.7261L20.9024 53.6061C21.3062 54.0783 22.0164 54.1337 22.4885 53.73C22.7383 53.5162 22.8823 53.2038 22.8823 52.8749V47.9924H43.526C44.7687 47.9924 45.776 46.9851 45.776 45.7424V2.24999C45.776 1.00729 44.7687 0 43.526 0ZM19.2824 48.2286C18.8785 47.7564 18.1683 47.701 17.6963 48.1047C17.6518 48.1427 17.6105 48.1842 17.5724 48.2286L16.2224 49.8036V45.5286C17.6437 46.064 19.2111 46.064 20.6324 45.5286V49.8036L19.2824 48.2286ZM22.5111 39.5436C22.5112 41.8064 20.69 43.6478 18.4274 43.6724H18.3824C16.1021 43.6724 14.2536 41.8239 14.2536 39.5436C14.2536 37.2634 16.1021 35.4149 18.3824 35.4149C20.6626 35.4149 22.5111 37.2634 22.5111 39.5436ZM43.4698 45.7311H22.8823V44.0999C25.4036 41.6395 25.453 37.6009 22.9926 35.0797C20.5322 32.5584 16.4936 32.509 13.9724 34.9694C11.4511 37.4298 11.4017 41.4684 13.8621 43.9896C13.8984 44.0269 13.9351 44.0636 13.9724 44.0999V45.7311H10.4736V2.24999H43.526L43.4698 45.7311Z" fill="url(#paint0_linear)"/>
<path d="M36.7761 8.89868H17.2236C16.6024 8.89868 16.0986 9.4024 16.0986 10.0237C16.0986 10.645 16.6024 11.1487 17.2236 11.1487H36.7761C37.3974 11.1487 37.9011 10.645 37.9011 10.0237C37.9011 9.4024 37.3975 8.89868 36.7761 8.89868Z" fill="url(#paint1_linear)"/>
<path d="M36.7761 15.3674H17.2236C16.6024 15.3674 16.0986 15.8712 16.0986 16.4924C16.0986 17.1137 16.6024 17.6174 17.2236 17.6174H36.7761C37.3974 17.6174 37.9011 17.1137 37.9011 16.4924C37.9011 15.8712 37.3975 15.3674 36.7761 15.3674Z" fill="url(#paint2_linear)"/>
<path d="M36.7761 21.8362H17.2236C16.6024 21.8362 16.0986 22.3399 16.0986 22.9612C16.0986 23.5825 16.6024 24.0862 17.2236 24.0862H36.7761C37.3974 24.0862 37.9011 23.5825 37.9011 22.9612C37.9011 22.3399 37.3975 21.8362 36.7761 21.8362Z" fill="url(#paint3_linear)"/>
<path d="M36.7761 28.3049H17.2236C16.6024 28.3049 16.0986 28.8087 16.0986 29.4299C16.0986 30.0512 16.6024 30.555 17.2236 30.555H36.7761C37.3974 30.555 37.9011 30.0512 37.9011 29.4299C37.9011 28.8087 37.3975 28.3049 36.7761 28.3049Z" fill="url(#paint4_linear)"/>
<path d="M36.7762 34.7737H27.8437C27.2225 34.7737 26.7188 35.2774 26.7188 35.8987C26.7188 36.52 27.2225 37.0237 27.8437 37.0237H36.7762C37.3975 37.0237 37.9012 36.52 37.9012 35.8987C37.9012 35.2774 37.3976 34.7737 36.7762 34.7737Z" fill="url(#paint5_linear)"/>
<defs>
<linearGradient id="paint0_linear" x1="26.9998" y1="5.3237e-07" x2="49.3466" y2="43.3437" gradientUnits="userSpaceOnUse">
<stop stop-color="#FCFFD4"/>
<stop offset="1" stop-color="#80805D"/>
</linearGradient>
<linearGradient id="paint1_linear" x1="26.9999" y1="8.89868" x2="27.0843" y2="11.1816" gradientUnits="userSpaceOnUse">
<stop stop-color="#FCFFD4"/>
<stop offset="1" stop-color="#80805D"/>
</linearGradient>
<linearGradient id="paint2_linear" x1="26.9999" y1="15.3674" x2="27.0843" y2="17.6504" gradientUnits="userSpaceOnUse">
<stop stop-color="#FCFFD4"/>
<stop offset="1" stop-color="#80805D"/>
</linearGradient>
<linearGradient id="paint3_linear" x1="26.9999" y1="21.8362" x2="27.0843" y2="24.1191" gradientUnits="userSpaceOnUse">
<stop stop-color="#FCFFD4"/>
<stop offset="1" stop-color="#80805D"/>
</linearGradient>
<linearGradient id="paint4_linear" x1="26.9999" y1="28.3049" x2="27.0843" y2="30.5879" gradientUnits="userSpaceOnUse">
<stop stop-color="#FCFFD4"/>
<stop offset="1" stop-color="#80805D"/>
</linearGradient>
<linearGradient id="paint5_linear" x1="32.31" y1="34.7737" x2="32.474" y2="37.0479" gradientUnits="userSpaceOnUse">
<stop stop-color="#FCFFD4"/>
<stop offset="1" stop-color="#80805D"/>
</linearGradient>
</defs>
</svg>
