<svg width="25" height="25" viewBox="0 0 25 25" fill="none" xmlns="http://www.w3.org/2000/svg">
<path d="M14.342 4.82445C15.2674 5.00467 16.118 5.45642 16.7847 6.12189C17.4515 6.78736 17.9041 7.63626 18.0846 8.55996L14.342 4.82445ZM14.342 1.04166C16.2647 1.25486 18.0577 2.11425 19.4265 3.47873C20.7954 4.84322 21.6587 6.63169 21.8747 8.5505L14.342 1.04166ZM20.9272 16.0972V18.9343C20.9282 19.1976 20.8742 19.4583 20.7685 19.6997C20.6628 19.941 20.5077 20.1576 20.3133 20.3357C20.1188 20.5137 19.8892 20.6493 19.6393 20.7336C19.3893 20.818 19.1244 20.8494 18.8616 20.8257C15.946 20.5095 13.1453 19.5151 10.6846 17.9224C8.39526 16.4704 6.45429 14.5331 4.99955 12.2482C3.39824 9.78105 2.40171 6.97213 2.0907 4.04898C2.06702 3.78747 2.09816 3.52389 2.18213 3.27505C2.26611 3.0262 2.40107 2.79753 2.57844 2.6036C2.75581 2.40967 2.9717 2.25472 3.21235 2.14862C3.453 2.04253 3.71316 1.98761 3.97624 1.98736H6.81877C7.2786 1.98284 7.72439 2.14537 8.07304 2.44464C8.4217 2.74391 8.64942 3.1595 8.71378 3.61396C8.83376 4.52189 9.05626 5.41336 9.37704 6.27137C9.50452 6.60986 9.53211 6.97773 9.45654 7.33138C9.38097 7.68504 9.20541 8.00967 8.95066 8.26679L7.74732 9.46783C9.09615 11.8354 11.0602 13.7958 13.4324 15.142L14.6357 13.941C14.8933 13.6867 15.2186 13.5115 15.5729 13.4361C15.9272 13.3606 16.2958 13.3882 16.635 13.5154C17.4946 13.8356 18.3878 14.0577 19.2975 14.1774C19.7577 14.2422 20.1781 14.4736 20.4786 14.8276C20.779 15.1815 20.9387 15.6334 20.9272 16.0972Z" stroke="url(#paint0_linear)" stroke-width="2" stroke-linecap="round" stroke-linejoin="round"/>
<defs>
<linearGradient id="paint0_linear" x1="11.9788" y1="1.04166" x2="18.3673" y2="18.8599" gradientUnits="userSpaceOnUse">
<stop stop-color="#FCFFD4"/>
<stop offset="1" stop-color="#80805D"/>
</linearGradient>
</defs>
</svg>
