<svg width="72" height="72" viewBox="0 0 72 72" fill="none" xmlns="http://www.w3.org/2000/svg">
<path d="M61.681 35.8403C63.1229 34.7835 64.0645 33.0823 64.0645 31.1613C64.0645 28.1439 61.7516 25.6597 58.8058 25.3829C55.5484 18.3968 49.2706 13.2842 41.7919 11.521C41.6419 8.45226 39.1055 6 36 6C32.8945 6 30.3581 8.45226 30.2081 11.521C22.7303 13.2842 16.4506 18.3987 13.1942 25.3829C10.2484 25.6597 7.93548 28.1439 7.93548 31.1613C7.93548 33.0823 8.8771 34.7835 10.319 35.8403C7.76419 37.1071 6 39.7355 6 42.7742V45.6774C6 46.2116 6.43355 46.6452 6.96774 46.6452H13.2068C16.1971 53.0284 21.8439 57.9484 28.5552 60.0319C28.3664 60.6997 28.2581 61.4013 28.2581 62.129V65.0323C28.2581 65.5664 28.6916 66 29.2258 66H42.7742C43.3084 66 43.7419 65.5664 43.7419 65.0323V62.129C43.7419 61.4013 43.6335 60.6997 43.4458 60.0319C50.1561 57.9484 55.8029 53.0284 58.7932 46.6452H65.0323C65.5664 46.6452 66 46.2116 66 45.6774V42.7742C66 39.7355 64.2358 37.1071 61.681 35.8403ZM62.129 31.1613C62.129 33.2961 60.3929 35.0323 58.2581 35.0323C56.1232 35.0323 54.3871 33.2961 54.3871 31.1613C54.3871 29.0265 56.1232 27.2903 58.2581 27.2903C60.3929 27.2903 62.129 29.0265 62.129 31.1613ZM36 7.93548C38.1348 7.93548 39.871 9.67161 39.871 11.8065C39.871 13.9413 38.1348 15.6774 36 15.6774C33.8652 15.6774 32.129 13.9413 32.129 11.8065C32.129 9.67161 33.8652 7.93548 36 7.93548ZM9.87097 31.1613C9.87097 29.0265 11.6071 27.2903 13.7419 27.2903C15.8768 27.2903 17.6129 29.0265 17.6129 31.1613C17.6129 33.2961 15.8768 35.0323 13.7419 35.0323C11.6071 35.0323 9.87097 33.2961 9.87097 31.1613ZM7.93548 42.7742C7.93548 39.5719 10.5397 36.9677 13.7419 36.9677C16.9442 36.9677 19.5484 39.5719 19.5484 42.7742V44.7097H7.93548V42.7742ZM41.8064 64.0645H30.1935V62.129C30.1935 58.9268 32.7977 56.3226 36 56.3226C39.2023 56.3226 41.8064 58.9268 41.8064 62.129V64.0645ZM32.129 50.5161C32.129 48.3813 33.8652 46.6452 36 46.6452C38.1348 46.6452 39.871 48.3813 39.871 50.5161C39.871 52.651 38.1348 54.3871 36 54.3871C33.8652 54.3871 32.129 52.651 32.129 50.5161ZM42.6832 58.2397C41.9197 56.9323 40.7855 55.8706 39.4229 55.1952C40.8648 54.1384 41.8064 52.4371 41.8064 50.5161C41.8064 47.3139 39.2023 44.7097 36 44.7097C32.7977 44.7097 30.1935 47.3139 30.1935 50.5161C30.1935 52.4371 31.1352 54.1384 32.5771 55.1952C31.2155 55.8706 30.0813 56.9323 29.3168 58.2397C23.3294 56.4387 18.2352 52.199 15.3581 46.6452H20.5161C21.0503 46.6452 21.4839 46.2116 21.4839 45.6774V42.7742C21.4839 39.7355 19.7197 37.1071 17.1648 35.8403C18.6068 34.7835 19.5484 33.0823 19.5484 31.1613C19.5484 28.4816 17.7213 26.2268 15.2497 25.561C18.3 19.5048 23.8568 15.0735 30.4345 13.4555C30.8003 14.6865 31.5639 15.7442 32.5761 16.4865C30.0223 17.7523 28.2581 20.3806 28.2581 23.4194V26.3226C28.2581 26.8568 28.6916 27.2903 29.2258 27.2903H42.7742C43.3084 27.2903 43.7419 26.8568 43.7419 26.3226V23.4194C43.7419 20.3806 41.9777 17.7523 39.4229 16.4855C40.4342 15.7432 41.1987 14.6855 41.5645 13.4545C48.1442 15.0726 53.699 19.5029 56.7494 25.56C54.2777 26.2268 52.4516 28.4816 52.4516 31.1613C52.4516 33.0823 53.3932 34.7835 54.8352 35.8403C52.2803 37.1071 50.5161 39.7355 50.5161 42.7742V45.6774C50.5161 46.2116 50.9497 46.6452 51.4839 46.6452H56.6419C53.7639 52.199 48.6706 56.4387 42.6832 58.2397ZM36 17.6129C39.2023 17.6129 41.8064 20.2171 41.8064 23.4194V25.3548H30.1935V23.4194C30.1935 20.2171 32.7977 17.6129 36 17.6129ZM64.0645 44.7097H52.4516V42.7742C52.4516 39.5719 55.0558 36.9677 58.2581 36.9677C61.4603 36.9677 64.0645 39.5719 64.0645 42.7742V44.7097Z" fill="url(#paint0_linear)"/>
<path d="M31.1611 36H29.2256C29.2256 39.7355 32.2643 42.7742 35.9998 42.7742V40.8387C33.3317 40.8387 31.1611 38.6681 31.1611 36Z" fill="url(#paint1_linear)"/>
<path d="M36 29.2258V31.1613C38.6681 31.1613 40.8387 33.332 40.8387 36H42.7742C42.7742 32.2645 39.7355 29.2258 36 29.2258Z" fill="url(#paint2_linear)"/>
<defs>
<linearGradient id="paint0_linear" x1="36" y1="6" x2="55.3671" y2="60.0174" gradientUnits="userSpaceOnUse">
<stop stop-color="#FCFFD4"/>
<stop offset="1" stop-color="#80805D"/>
</linearGradient>
<linearGradient id="paint1_linear" x1="32.6127" y1="36" x2="34.7993" y2="42.0987" gradientUnits="userSpaceOnUse">
<stop stop-color="#FCFFD4"/>
<stop offset="1" stop-color="#80805D"/>
</linearGradient>
<linearGradient id="paint2_linear" x1="39.3871" y1="29.2258" x2="41.5737" y2="35.3246" gradientUnits="userSpaceOnUse">
<stop stop-color="#FCFFD4"/>
<stop offset="1" stop-color="#80805D"/>
</linearGradient>
</defs>
</svg>
