<svg width="48" height="48" viewBox="0 0 48 48" fill="none" xmlns="http://www.w3.org/2000/svg">
<g clip-path="url(#clip0)">
<path d="M42.1764 9.71856L24.1359 0.105646C23.8682 -0.0371944 23.5475 -0.0351898 23.2818 0.110658L5.74053 9.72357C5.45284 9.88145 5.27441 10.1832 5.27441 10.5114V23.0684C5.28494 33.3905 11.4005 42.7287 20.8581 46.8641L23.2929 47.9251C23.5204 48.0244 23.7795 48.0249 24.0076 47.9261L26.7511 46.7413C36.3841 42.6957 42.651 33.2672 42.652 22.8193V10.5114C42.652 10.1797 42.4691 9.87443 42.1764 9.71856ZM40.8557 22.8193C40.8537 32.547 35.0173 41.3244 26.0479 45.0889L26.0419 45.0919L23.6527 46.1233L21.5768 45.2177C12.7733 41.3685 7.08022 32.6768 7.07019 23.0684V11.0432L23.7194 1.91847L40.8557 11.0497V22.8193Z" fill="url(#paint0_linear)"/>
<path d="M17.0933 22.4862C16.771 22.1088 16.2041 22.0642 15.8267 22.3865C15.4494 22.7082 15.4047 23.2756 15.727 23.6525L20.4713 29.2082C20.7881 29.5791 21.3429 29.6297 21.7208 29.322L32.7701 20.3326C33.155 20.0198 33.2132 19.454 32.8999 19.0691C32.5872 18.6847 32.0213 18.626 31.6364 18.9393L21.2677 27.3744L17.0933 22.4862Z" fill="url(#paint1_linear)"/>
</g>
<defs>
<linearGradient id="paint0_linear" x1="23.9632" y1="-0.000121597" x2="42.4902" y2="40.2385" gradientUnits="userSpaceOnUse">
<stop stop-color="#FCFFD4"/>
<stop offset="1" stop-color="#80805D"/>
</linearGradient>
<linearGradient id="paint1_linear" x1="24.3066" y1="18.7378" x2="26.6047" y2="29.1909" gradientUnits="userSpaceOnUse">
<stop stop-color="#FCFFD4"/>
<stop offset="1" stop-color="#80805D"/>
</linearGradient>
<clipPath id="clip0">
<rect width="48" height="48" fill="white"/>
</clipPath>
</defs>
</svg>
