<svg width="22" height="22" viewBox="0 0 22 22" fill="none" xmlns="http://www.w3.org/2000/svg">
<path d="M13.342 4.82445C14.2674 5.00467 15.118 5.45642 15.7847 6.12189C16.4515 6.78736 16.9041 7.63626 17.0846 8.55996L13.342 4.82445ZM13.342 1.04166C15.2647 1.25486 17.0577 2.11425 18.4265 3.47873C19.7954 4.84322 20.6587 6.63169 20.8747 8.5505L13.342 1.04166ZM19.9272 16.0972V18.9343C19.9282 19.1976 19.8742 19.4583 19.7685 19.6997C19.6628 19.941 19.5077 20.1576 19.3133 20.3357C19.1188 20.5137 18.8892 20.6493 18.6393 20.7336C18.3893 20.818 18.1244 20.8494 17.8616 20.8257C14.946 20.5095 12.1453 19.5151 9.6846 17.9224C7.39526 16.4704 5.45429 14.5331 3.99955 12.2482C2.39824 9.78105 1.40171 6.97213 1.0907 4.04898C1.06702 3.78747 1.09816 3.52389 1.18213 3.27505C1.26611 3.0262 1.40107 2.79753 1.57844 2.6036C1.75581 2.40967 1.9717 2.25472 2.21235 2.14862C2.453 2.04253 2.71316 1.98761 2.97624 1.98736H5.81877C6.2786 1.98284 6.72439 2.14537 7.07304 2.44464C7.4217 2.74391 7.64942 3.1595 7.71378 3.61396C7.83376 4.52189 8.05626 5.41336 8.37704 6.27137C8.50452 6.60986 8.53211 6.97773 8.45654 7.33138C8.38097 7.68504 8.20541 8.00967 7.95066 8.26679L6.74732 9.46783C8.09615 11.8354 10.0602 13.7958 12.4324 15.142L13.6357 13.941C13.8933 13.6867 14.2186 13.5115 14.5729 13.4361C14.9272 13.3606 15.2958 13.3882 15.635 13.5154C16.4946 13.8356 17.3878 14.0577 18.2975 14.1774C18.7577 14.2422 19.1781 14.4736 19.4786 14.8276C19.779 15.1815 19.9387 15.6334 19.9272 16.0972Z" stroke="url(#paint0_linear)" stroke-width="2" stroke-linecap="round" stroke-linejoin="round"/>
<defs>
<linearGradient id="paint0_linear" x1="10.9788" y1="1.04166" x2="17.3673" y2="18.8599" gradientUnits="userSpaceOnUse">
<stop stop-color="#FCFFD4"/>
<stop offset="1" stop-color="#80805D"/>
</linearGradient>
</defs>
</svg>
