<svg width="24" height="23" viewBox="0 0 24 23" fill="none" xmlns="http://www.w3.org/2000/svg">
<g opacity="0.5">
<path fill-rule="evenodd" clip-rule="evenodd" d="M22.1797 6.08502C22.3382 5.58292 22.1797 5.21791 21.4786 5.21791H19.1475C18.5594 5.21791 18.2879 5.53751 18.1294 5.87937C18.1294 5.87937 16.9303 8.79943 15.2557 10.6926C14.7126 11.2401 14.4638 11.4226 14.1696 11.4226C14.0111 11.4226 13.8072 11.2401 13.8072 10.7384V6.06143C13.8072 5.46852 13.6265 5.19476 13.1284 5.19476H9.4623C9.09996 5.19476 8.87384 5.46852 8.87384 5.74227C8.87384 6.31249 9.71113 6.44959 9.80149 8.04627V11.5156C9.80149 12.2683 9.66795 12.4059 9.37149 12.4059C8.57961 12.4059 6.6562 9.46312 5.50242 6.10995C5.27807 5.44582 5.05016 5.19476 4.4617 5.19476H2.10829C1.42947 5.19476 1.31641 5.51392 1.31641 5.85623C1.31641 6.47229 2.10829 9.57441 5.00476 13.6803C6.92817 16.4846 9.66617 17.9918 12.1326 17.9918C13.6265 17.9918 13.8072 17.6495 13.8072 17.0793V14.9578C13.8072 14.2737 13.943 14.1597 14.4184 14.1597C14.7576 14.1597 15.3687 14.3418 16.7491 15.6878C18.3329 17.2845 18.6044 18.0145 19.4871 18.0145H21.8178C22.4966 18.0145 22.8136 17.6722 22.6324 17.0108C22.429 16.3493 21.6593 15.3914 20.6636 14.251C20.1205 13.6126 19.3059 12.9053 19.0571 12.563C18.7179 12.1068 18.8083 11.9243 19.0571 11.5138C19.0344 11.5138 21.8859 7.45336 22.1797 6.08324" fill="white"/>
</g>
</svg>
